<svg width="22" height="22" viewBox="0 0 22 22" fill="none" xmlns="http://www.w3.org/2000/svg">
<mask id="path-1-outside-1_258_21" maskUnits="userSpaceOnUse" x="0.0576172" y="-0.50354" width="22" height="23" fill="black">
<rect fill="white" x="0.0576172" y="-0.50354" width="22" height="23"/>
<path d="M20.6748 13.6648L19.1397 12.3523C19.2123 11.907 19.2498 11.4523 19.2498 10.9976C19.2498 10.5429 19.2123 10.0883 19.1397 9.64294L20.6748 8.33044C20.7906 8.23132 20.8735 8.09929 20.9124 7.95193C20.9513 7.80456 20.9445 7.64883 20.8928 7.50544L20.8717 7.44451C20.4491 6.26332 19.8162 5.16834 19.0037 4.21248L18.9615 4.16326C18.863 4.04736 18.7316 3.96405 18.5847 3.92431C18.4379 3.88456 18.2824 3.89024 18.1389 3.9406L16.2334 4.61794C15.5303 4.04138 14.7451 3.58669 13.8967 3.26794L13.5287 1.27576C13.501 1.12586 13.4282 0.98795 13.3202 0.880361C13.2122 0.772772 13.074 0.700593 12.924 0.673413L12.8607 0.661694C11.6397 0.441382 10.3553 0.441382 9.13418 0.661694L9.0709 0.673413C8.92089 0.700593 8.78271 0.772772 8.6747 0.880361C8.56669 0.98795 8.49398 1.12586 8.46621 1.27576L8.0959 3.27732C7.25423 3.59614 6.47043 4.05058 5.77559 4.62263L3.85606 3.9406C3.71254 3.88984 3.55697 3.88395 3.41003 3.92372C3.26309 3.9635 3.13173 4.04704 3.0334 4.16326L2.99122 4.21248C2.17968 5.16902 1.54694 6.26381 1.12325 7.44451L1.10215 7.50544C0.996684 7.79841 1.0834 8.12654 1.32012 8.33044L2.87403 9.65701C2.80137 10.0976 2.76622 10.5476 2.76622 10.9953C2.76622 11.4453 2.80137 11.8953 2.87403 12.3336L1.32012 13.6601C1.20433 13.7593 1.12146 13.8913 1.08252 14.0387C1.04359 14.186 1.05043 14.3417 1.10215 14.4851L1.12325 14.5461C1.54747 15.7273 2.17559 16.8172 2.99122 17.7781L3.0334 17.8273C3.13197 17.9432 3.26333 18.0265 3.41019 18.0663C3.55704 18.106 3.7125 18.1003 3.85606 18.05L5.77559 17.3679C6.47403 17.9422 7.2545 18.3969 8.0959 18.7133L8.46621 20.7148C8.49398 20.8647 8.56669 21.0026 8.6747 21.1102C8.78271 21.2178 8.92089 21.29 9.0709 21.3172L9.13418 21.3289C10.3665 21.5504 11.6284 21.5504 12.8607 21.3289L12.924 21.3172C13.074 21.29 13.2122 21.2178 13.3202 21.1102C13.4282 21.0026 13.501 20.8647 13.5287 20.7148L13.8967 18.7226C14.7448 18.4047 15.5344 17.9485 16.2334 17.3726L18.1389 18.05C18.2824 18.1007 18.438 18.1066 18.5849 18.0669C18.7318 18.0271 18.8632 17.9435 18.9615 17.8273L19.0037 17.7781C19.8193 16.8148 20.4475 15.7273 20.8717 14.5461L20.8928 14.4851C20.9982 14.1969 20.9115 13.8687 20.6748 13.6648ZM17.4756 9.91951C17.5342 10.2734 17.5646 10.6367 17.5646 11C17.5646 11.3633 17.5342 11.7265 17.4756 12.0804L17.3209 13.0203L19.0717 14.5179C18.8063 15.1294 18.4712 15.7082 18.0732 16.2429L15.8982 15.4719L15.1623 16.0765C14.6022 16.5359 13.9787 16.8969 13.3037 17.15L12.4107 17.4851L11.9912 19.7586C11.3293 19.8336 10.661 19.8336 9.99903 19.7586L9.5795 17.4804L8.69356 17.1406C8.02559 16.8875 7.4045 16.5265 6.84903 16.0695L6.11309 15.4625L3.92403 16.2406C3.52559 15.7039 3.19278 15.125 2.92559 14.5156L4.69512 13.0039L4.54278 12.0664C4.48653 11.7172 4.45606 11.3562 4.45606 11C4.45606 10.6414 4.48418 10.2828 4.54278 9.93357L4.69512 8.99607L2.92559 7.48435C3.19043 6.87263 3.52559 6.29607 3.92403 5.75935L6.11309 6.53748L6.84903 5.93044C7.4045 5.47341 8.02559 5.11248 8.69356 4.85935L9.58184 4.52419L10.0014 2.24607C10.66 2.17107 11.3326 2.17107 11.9936 2.24607L12.4131 4.51951L13.3061 4.85466C13.9787 5.10779 14.6045 5.46873 15.1647 5.9281L15.9006 6.53279L18.0756 5.76169C18.474 6.29841 18.8068 6.87732 19.074 7.48669L17.3232 8.98435L17.4756 9.91951ZM10.9998 6.6406C8.72168 6.6406 6.87481 8.48748 6.87481 10.7656C6.87481 13.0437 8.72168 14.8906 10.9998 14.8906C13.2779 14.8906 15.1248 13.0437 15.1248 10.7656C15.1248 8.48748 13.2779 6.6406 10.9998 6.6406ZM12.8561 12.6219C12.6126 12.866 12.3233 13.0596 12.0047 13.1916C11.6861 13.3235 11.3446 13.3911 10.9998 13.3906C10.299 13.3906 9.64043 13.1164 9.14356 12.6219C8.89939 12.3784 8.70578 12.089 8.57385 11.7705C8.44191 11.4519 8.37427 11.1104 8.37481 10.7656C8.37481 10.0648 8.64903 9.40623 9.14356 8.90935C9.64043 8.41248 10.299 8.1406 10.9998 8.1406C11.7006 8.1406 12.3592 8.41248 12.8561 8.90935C13.1002 9.15281 13.2938 9.44215 13.4258 9.76072C13.5577 10.0793 13.6253 10.4208 13.6248 10.7656C13.6248 11.4664 13.3506 12.125 12.8561 12.6219Z"/>
</mask>
<path d="M20.6748 13.6648L19.1397 12.3523C19.2123 11.907 19.2498 11.4523 19.2498 10.9976C19.2498 10.5429 19.2123 10.0883 19.1397 9.64294L20.6748 8.33044C20.7906 8.23132 20.8735 8.09929 20.9124 7.95193C20.9513 7.80456 20.9445 7.64883 20.8928 7.50544L20.8717 7.44451C20.4491 6.26332 19.8162 5.16834 19.0037 4.21248L18.9615 4.16326C18.863 4.04736 18.7316 3.96405 18.5847 3.92431C18.4379 3.88456 18.2824 3.89024 18.1389 3.9406L16.2334 4.61794C15.5303 4.04138 14.7451 3.58669 13.8967 3.26794L13.5287 1.27576C13.501 1.12586 13.4282 0.98795 13.3202 0.880361C13.2122 0.772772 13.074 0.700593 12.924 0.673413L12.8607 0.661694C11.6397 0.441382 10.3553 0.441382 9.13418 0.661694L9.0709 0.673413C8.92089 0.700593 8.78271 0.772772 8.6747 0.880361C8.56669 0.98795 8.49398 1.12586 8.46621 1.27576L8.0959 3.27732C7.25423 3.59614 6.47043 4.05058 5.77559 4.62263L3.85606 3.9406C3.71254 3.88984 3.55697 3.88395 3.41003 3.92372C3.26309 3.9635 3.13173 4.04704 3.0334 4.16326L2.99122 4.21248C2.17968 5.16902 1.54694 6.26381 1.12325 7.44451L1.10215 7.50544C0.996684 7.79841 1.0834 8.12654 1.32012 8.33044L2.87403 9.65701C2.80137 10.0976 2.76622 10.5476 2.76622 10.9953C2.76622 11.4453 2.80137 11.8953 2.87403 12.3336L1.32012 13.6601C1.20433 13.7593 1.12146 13.8913 1.08252 14.0387C1.04359 14.186 1.05043 14.3417 1.10215 14.4851L1.12325 14.5461C1.54747 15.7273 2.17559 16.8172 2.99122 17.7781L3.0334 17.8273C3.13197 17.9432 3.26333 18.0265 3.41019 18.0663C3.55704 18.106 3.7125 18.1003 3.85606 18.05L5.77559 17.3679C6.47403 17.9422 7.2545 18.3969 8.0959 18.7133L8.46621 20.7148C8.49398 20.8647 8.56669 21.0026 8.6747 21.1102C8.78271 21.2178 8.92089 21.29 9.0709 21.3172L9.13418 21.3289C10.3665 21.5504 11.6284 21.5504 12.8607 21.3289L12.924 21.3172C13.074 21.29 13.2122 21.2178 13.3202 21.1102C13.4282 21.0026 13.501 20.8647 13.5287 20.7148L13.8967 18.7226C14.7448 18.4047 15.5344 17.9485 16.2334 17.3726L18.1389 18.05C18.2824 18.1007 18.438 18.1066 18.5849 18.0669C18.7318 18.0271 18.8632 17.9435 18.9615 17.8273L19.0037 17.7781C19.8193 16.8148 20.4475 15.7273 20.8717 14.5461L20.8928 14.4851C20.9982 14.1969 20.9115 13.8687 20.6748 13.6648ZM17.4756 9.91951C17.5342 10.2734 17.5646 10.6367 17.5646 11C17.5646 11.3633 17.5342 11.7265 17.4756 12.0804L17.3209 13.0203L19.0717 14.5179C18.8063 15.1294 18.4712 15.7082 18.0732 16.2429L15.8982 15.4719L15.1623 16.0765C14.6022 16.5359 13.9787 16.8969 13.3037 17.15L12.4107 17.4851L11.9912 19.7586C11.3293 19.8336 10.661 19.8336 9.99903 19.7586L9.5795 17.4804L8.69356 17.1406C8.02559 16.8875 7.4045 16.5265 6.84903 16.0695L6.11309 15.4625L3.92403 16.2406C3.52559 15.7039 3.19278 15.125 2.92559 14.5156L4.69512 13.0039L4.54278 12.0664C4.48653 11.7172 4.45606 11.3562 4.45606 11C4.45606 10.6414 4.48418 10.2828 4.54278 9.93357L4.69512 8.99607L2.92559 7.48435C3.19043 6.87263 3.52559 6.29607 3.92403 5.75935L6.11309 6.53748L6.84903 5.93044C7.4045 5.47341 8.02559 5.11248 8.69356 4.85935L9.58184 4.52419L10.0014 2.24607C10.66 2.17107 11.3326 2.17107 11.9936 2.24607L12.4131 4.51951L13.3061 4.85466C13.9787 5.10779 14.6045 5.46873 15.1647 5.9281L15.9006 6.53279L18.0756 5.76169C18.474 6.29841 18.8068 6.87732 19.074 7.48669L17.3232 8.98435L17.4756 9.91951ZM10.9998 6.6406C8.72168 6.6406 6.87481 8.48748 6.87481 10.7656C6.87481 13.0437 8.72168 14.8906 10.9998 14.8906C13.2779 14.8906 15.1248 13.0437 15.1248 10.7656C15.1248 8.48748 13.2779 6.6406 10.9998 6.6406ZM12.8561 12.6219C12.6126 12.866 12.3233 13.0596 12.0047 13.1916C11.6861 13.3235 11.3446 13.3911 10.9998 13.3906C10.299 13.3906 9.64043 13.1164 9.14356 12.6219C8.89939 12.3784 8.70578 12.089 8.57385 11.7705C8.44191 11.4519 8.37427 11.1104 8.37481 10.7656C8.37481 10.0648 8.64903 9.40623 9.14356 8.90935C9.64043 8.41248 10.299 8.1406 10.9998 8.1406C11.7006 8.1406 12.3592 8.41248 12.8561 8.90935C13.1002 9.15281 13.2938 9.44215 13.4258 9.76072C13.5577 10.0793 13.6253 10.4208 13.6248 10.7656C13.6248 11.4664 13.3506 12.125 12.8561 12.6219Z" fill="#D20653"/>
<path d="M20.6748 13.6648L19.1397 12.3523C19.2123 11.907 19.2498 11.4523 19.2498 10.9976C19.2498 10.5429 19.2123 10.0883 19.1397 9.64294L20.6748 8.33044C20.7906 8.23132 20.8735 8.09929 20.9124 7.95193C20.9513 7.80456 20.9445 7.64883 20.8928 7.50544L20.8717 7.44451C20.4491 6.26332 19.8162 5.16834 19.0037 4.21248L18.9615 4.16326C18.863 4.04736 18.7316 3.96405 18.5847 3.92431C18.4379 3.88456 18.2824 3.89024 18.1389 3.9406L16.2334 4.61794C15.5303 4.04138 14.7451 3.58669 13.8967 3.26794L13.5287 1.27576C13.501 1.12586 13.4282 0.98795 13.3202 0.880361C13.2122 0.772772 13.074 0.700593 12.924 0.673413L12.8607 0.661694C11.6397 0.441382 10.3553 0.441382 9.13418 0.661694L9.0709 0.673413C8.92089 0.700593 8.78271 0.772772 8.6747 0.880361C8.56669 0.98795 8.49398 1.12586 8.46621 1.27576L8.0959 3.27732C7.25423 3.59614 6.47043 4.05058 5.77559 4.62263L3.85606 3.9406C3.71254 3.88984 3.55697 3.88395 3.41003 3.92372C3.26309 3.9635 3.13173 4.04704 3.0334 4.16326L2.99122 4.21248C2.17968 5.16902 1.54694 6.26381 1.12325 7.44451L1.10215 7.50544C0.996684 7.79841 1.0834 8.12654 1.32012 8.33044L2.87403 9.65701C2.80137 10.0976 2.76622 10.5476 2.76622 10.9953C2.76622 11.4453 2.80137 11.8953 2.87403 12.3336L1.32012 13.6601C1.20433 13.7593 1.12146 13.8913 1.08252 14.0387C1.04359 14.186 1.05043 14.3417 1.10215 14.4851L1.12325 14.5461C1.54747 15.7273 2.17559 16.8172 2.99122 17.7781L3.0334 17.8273C3.13197 17.9432 3.26333 18.0265 3.41019 18.0663C3.55704 18.106 3.7125 18.1003 3.85606 18.05L5.77559 17.3679C6.47403 17.9422 7.2545 18.3969 8.0959 18.7133L8.46621 20.7148C8.49398 20.8647 8.56669 21.0026 8.6747 21.1102C8.78271 21.2178 8.92089 21.29 9.0709 21.3172L9.13418 21.3289C10.3665 21.5504 11.6284 21.5504 12.8607 21.3289L12.924 21.3172C13.074 21.29 13.2122 21.2178 13.3202 21.1102C13.4282 21.0026 13.501 20.8647 13.5287 20.7148L13.8967 18.7226C14.7448 18.4047 15.5344 17.9485 16.2334 17.3726L18.1389 18.05C18.2824 18.1007 18.438 18.1066 18.5849 18.0669C18.7318 18.0271 18.8632 17.9435 18.9615 17.8273L19.0037 17.7781C19.8193 16.8148 20.4475 15.7273 20.8717 14.5461L20.8928 14.4851C20.9982 14.1969 20.9115 13.8687 20.6748 13.6648ZM17.4756 9.91951C17.5342 10.2734 17.5646 10.6367 17.5646 11C17.5646 11.3633 17.5342 11.7265 17.4756 12.0804L17.3209 13.0203L19.0717 14.5179C18.8063 15.1294 18.4712 15.7082 18.0732 16.2429L15.8982 15.4719L15.1623 16.0765C14.6022 16.5359 13.9787 16.8969 13.3037 17.15L12.4107 17.4851L11.9912 19.7586C11.3293 19.8336 10.661 19.8336 9.99903 19.7586L9.5795 17.4804L8.69356 17.1406C8.02559 16.8875 7.4045 16.5265 6.84903 16.0695L6.11309 15.4625L3.92403 16.2406C3.52559 15.7039 3.19278 15.125 2.92559 14.5156L4.69512 13.0039L4.54278 12.0664C4.48653 11.7172 4.45606 11.3562 4.45606 11C4.45606 10.6414 4.48418 10.2828 4.54278 9.93357L4.69512 8.99607L2.92559 7.48435C3.19043 6.87263 3.52559 6.29607 3.92403 5.75935L6.11309 6.53748L6.84903 5.93044C7.4045 5.47341 8.02559 5.11248 8.69356 4.85935L9.58184 4.52419L10.0014 2.24607C10.66 2.17107 11.3326 2.17107 11.9936 2.24607L12.4131 4.51951L13.3061 4.85466C13.9787 5.10779 14.6045 5.46873 15.1647 5.9281L15.9006 6.53279L18.0756 5.76169C18.474 6.29841 18.8068 6.87732 19.074 7.48669L17.3232 8.98435L17.4756 9.91951ZM10.9998 6.6406C8.72168 6.6406 6.87481 8.48748 6.87481 10.7656C6.87481 13.0437 8.72168 14.8906 10.9998 14.8906C13.2779 14.8906 15.1248 13.0437 15.1248 10.7656C15.1248 8.48748 13.2779 6.6406 10.9998 6.6406ZM12.8561 12.6219C12.6126 12.866 12.3233 13.0596 12.0047 13.1916C11.6861 13.3235 11.3446 13.3911 10.9998 13.3906C10.299 13.3906 9.64043 13.1164 9.14356 12.6219C8.89939 12.3784 8.70578 12.089 8.57385 11.7705C8.44191 11.4519 8.37427 11.1104 8.37481 10.7656C8.37481 10.0648 8.64903 9.40623 9.14356 8.90935C9.64043 8.41248 10.299 8.1406 10.9998 8.1406C11.7006 8.1406 12.3592 8.41248 12.8561 8.90935C13.1002 9.15281 13.2938 9.44215 13.4258 9.76072C13.5577 10.0793 13.6253 10.4208 13.6248 10.7656C13.6248 11.4664 13.3506 12.125 12.8561 12.6219Z" stroke="#D20653" stroke-width="0.4" mask="url(#path-1-outside-1_258_21)"/>
</svg>
